<mxfile host="app.diagrams.net" modified="2023-06-28T12:55:55.067Z" agent="Mozilla/5.0 (Windows NT 10.0; Win64; x64) AppleWebKit/537.36 (KHTML, like Gecko) Chrome/114.0.0.0 Safari/537.36" etag="h4ZY3EZdcbu0l1JOSinK" version="21.5.1" type="github">
  <diagram name="Page-1" id="iJwcwytmyvBW5eWTjQb3">
    <mxGraphModel dx="1964" dy="613" grid="1" gridSize="10" guides="1" tooltips="1" connect="1" arrows="1" fold="1" page="1" pageScale="1" pageWidth="850" pageHeight="1100" math="0" shadow="0">
      <root>
        <mxCell id="0" />
        <mxCell id="1" parent="0" />
        <mxCell id="-sfLqBh8A9sCqYsM3AE3-4" style="edgeStyle=orthogonalEdgeStyle;rounded=0;orthogonalLoop=1;jettySize=auto;html=1;entryX=0;entryY=0.5;entryDx=0;entryDy=0;" edge="1" parent="1" source="-sfLqBh8A9sCqYsM3AE3-1" target="-sfLqBh8A9sCqYsM3AE3-2">
          <mxGeometry relative="1" as="geometry" />
        </mxCell>
        <mxCell id="-sfLqBh8A9sCqYsM3AE3-1" value="&lt;b&gt;&lt;font style=&quot;font-size: 13px;&quot;&gt;Button: href:&#39;booking.index&#39;&lt;/font&gt;&lt;/b&gt;" style="rounded=1;whiteSpace=wrap;html=1;" vertex="1" parent="1">
          <mxGeometry x="-40" y="160" width="180" height="40" as="geometry" />
        </mxCell>
        <mxCell id="-sfLqBh8A9sCqYsM3AE3-13" style="edgeStyle=orthogonalEdgeStyle;rounded=0;orthogonalLoop=1;jettySize=auto;html=1;entryX=0;entryY=0.5;entryDx=0;entryDy=0;" edge="1" parent="1" source="-sfLqBh8A9sCqYsM3AE3-2" target="-sfLqBh8A9sCqYsM3AE3-3">
          <mxGeometry relative="1" as="geometry" />
        </mxCell>
        <mxCell id="-sfLqBh8A9sCqYsM3AE3-2" value="&lt;b&gt;&lt;font style=&quot;font-size: 13px;&quot;&gt;Route: &#39;/book/{id}&lt;/font&gt;&lt;/b&gt;" style="rounded=1;whiteSpace=wrap;html=1;" vertex="1" parent="1">
          <mxGeometry x="220" y="160" width="120" height="40" as="geometry" />
        </mxCell>
        <mxCell id="-sfLqBh8A9sCqYsM3AE3-14" style="edgeStyle=orthogonalEdgeStyle;rounded=0;orthogonalLoop=1;jettySize=auto;html=1;entryX=0;entryY=0.5;entryDx=0;entryDy=0;" edge="1" parent="1" source="-sfLqBh8A9sCqYsM3AE3-3" target="-sfLqBh8A9sCqYsM3AE3-5">
          <mxGeometry relative="1" as="geometry" />
        </mxCell>
        <mxCell id="-sfLqBh8A9sCqYsM3AE3-3" value="&lt;b&gt;&lt;font style=&quot;font-size: 13px;&quot;&gt;BookingController::class, &#39;index&#39;&lt;/font&gt;&lt;/b&gt;" style="rounded=1;whiteSpace=wrap;html=1;" vertex="1" parent="1">
          <mxGeometry x="420" y="160" width="220" height="40" as="geometry" />
        </mxCell>
        <mxCell id="-sfLqBh8A9sCqYsM3AE3-15" style="edgeStyle=orthogonalEdgeStyle;rounded=0;orthogonalLoop=1;jettySize=auto;html=1;entryX=0.5;entryY=0;entryDx=0;entryDy=0;" edge="1" parent="1" source="-sfLqBh8A9sCqYsM3AE3-5" target="-sfLqBh8A9sCqYsM3AE3-6">
          <mxGeometry relative="1" as="geometry" />
        </mxCell>
        <mxCell id="-sfLqBh8A9sCqYsM3AE3-5" value="&lt;b&gt;&lt;font style=&quot;font-size: 13px;&quot;&gt;Blade: &#39;booking.book-room&#39;&lt;/font&gt;&lt;/b&gt;" style="rounded=1;whiteSpace=wrap;html=1;" vertex="1" parent="1">
          <mxGeometry x="700" y="160" width="220" height="40" as="geometry" />
        </mxCell>
        <mxCell id="-sfLqBh8A9sCqYsM3AE3-16" style="edgeStyle=orthogonalEdgeStyle;rounded=0;orthogonalLoop=1;jettySize=auto;html=1;entryX=1;entryY=0.5;entryDx=0;entryDy=0;" edge="1" parent="1" source="-sfLqBh8A9sCqYsM3AE3-6" target="-sfLqBh8A9sCqYsM3AE3-7">
          <mxGeometry relative="1" as="geometry" />
        </mxCell>
        <mxCell id="-sfLqBh8A9sCqYsM3AE3-6" value="&lt;b&gt;&lt;font style=&quot;font-size: 13px;&quot;&gt;Form:action: &#39;booking.store&#39;&lt;/font&gt;&lt;/b&gt;" style="rounded=1;whiteSpace=wrap;html=1;" vertex="1" parent="1">
          <mxGeometry x="700" y="280" width="220" height="40" as="geometry" />
        </mxCell>
        <mxCell id="-sfLqBh8A9sCqYsM3AE3-17" style="edgeStyle=orthogonalEdgeStyle;rounded=0;orthogonalLoop=1;jettySize=auto;html=1;" edge="1" parent="1" source="-sfLqBh8A9sCqYsM3AE3-7" target="-sfLqBh8A9sCqYsM3AE3-9">
          <mxGeometry relative="1" as="geometry" />
        </mxCell>
        <mxCell id="-sfLqBh8A9sCqYsM3AE3-7" value="&lt;font style=&quot;font-size: 13px;&quot;&gt;&lt;b&gt;Route: &#39;/booking/{id}&#39;&lt;/b&gt;&lt;/font&gt;" style="rounded=1;whiteSpace=wrap;html=1;" vertex="1" parent="1">
          <mxGeometry x="320" y="280" width="220" height="40" as="geometry" />
        </mxCell>
        <mxCell id="-sfLqBh8A9sCqYsM3AE3-18" style="edgeStyle=orthogonalEdgeStyle;rounded=0;orthogonalLoop=1;jettySize=auto;html=1;entryX=0.5;entryY=0;entryDx=0;entryDy=0;" edge="1" parent="1" source="-sfLqBh8A9sCqYsM3AE3-9" target="-sfLqBh8A9sCqYsM3AE3-10">
          <mxGeometry relative="1" as="geometry" />
        </mxCell>
        <mxCell id="-sfLqBh8A9sCqYsM3AE3-9" value="&lt;b&gt;&lt;font style=&quot;font-size: 13px;&quot;&gt;BookingController::class, &#39;store&#39;&lt;/font&gt;&lt;/b&gt;" style="rounded=1;whiteSpace=wrap;html=1;" vertex="1" parent="1">
          <mxGeometry x="-40" y="280" width="220" height="40" as="geometry" />
        </mxCell>
        <mxCell id="-sfLqBh8A9sCqYsM3AE3-19" style="edgeStyle=orthogonalEdgeStyle;rounded=0;orthogonalLoop=1;jettySize=auto;html=1;entryX=0;entryY=0.5;entryDx=0;entryDy=0;" edge="1" parent="1" source="-sfLqBh8A9sCqYsM3AE3-10" target="-sfLqBh8A9sCqYsM3AE3-11">
          <mxGeometry relative="1" as="geometry" />
        </mxCell>
        <mxCell id="-sfLqBh8A9sCqYsM3AE3-10" value="&lt;b&gt;&lt;font style=&quot;font-size: 13px;&quot;&gt;Route: &#39;booking.showFutre&#39;&lt;/font&gt;&lt;/b&gt;" style="rounded=1;whiteSpace=wrap;html=1;" vertex="1" parent="1">
          <mxGeometry x="-40" y="400" width="220" height="40" as="geometry" />
        </mxCell>
        <mxCell id="-sfLqBh8A9sCqYsM3AE3-20" style="edgeStyle=orthogonalEdgeStyle;rounded=0;orthogonalLoop=1;jettySize=auto;html=1;entryX=0;entryY=0.5;entryDx=0;entryDy=0;" edge="1" parent="1" source="-sfLqBh8A9sCqYsM3AE3-11" target="-sfLqBh8A9sCqYsM3AE3-12">
          <mxGeometry relative="1" as="geometry" />
        </mxCell>
        <mxCell id="-sfLqBh8A9sCqYsM3AE3-11" value="&lt;b&gt;&lt;font style=&quot;font-size: 13px;&quot;&gt;BookingController::class, &#39;showFuture&#39;&lt;/font&gt;&lt;/b&gt;" style="rounded=1;whiteSpace=wrap;html=1;" vertex="1" parent="1">
          <mxGeometry x="260" y="400" width="260" height="40" as="geometry" />
        </mxCell>
        <mxCell id="-sfLqBh8A9sCqYsM3AE3-12" value="&lt;b&gt;&lt;font style=&quot;font-size: 13px;&quot;&gt;Blade: &#39;booking.booking-future&#39;&lt;/font&gt;&lt;/b&gt;" style="rounded=1;whiteSpace=wrap;html=1;" vertex="1" parent="1">
          <mxGeometry x="700" y="400" width="220" height="40" as="geometry" />
        </mxCell>
        <mxCell id="-sfLqBh8A9sCqYsM3AE3-21" value="&lt;b&gt;Se afișează rezultatul final&lt;/b&gt;" style="text;html=1;strokeColor=none;fillColor=none;align=center;verticalAlign=middle;whiteSpace=wrap;rounded=0;" vertex="1" parent="1">
          <mxGeometry x="720" y="440" width="180" height="30" as="geometry" />
        </mxCell>
        <mxCell id="-sfLqBh8A9sCqYsM3AE3-22" value="&lt;b&gt;&#39;booking&#39; =&amp;gt; $id,&lt;br&gt;&#39;properties&#39; =&amp;gt; $properties,&lt;br&gt;&#39;bookings&#39; =&amp;gt; $bookings&lt;/b&gt;" style="text;html=1;strokeColor=none;fillColor=none;align=center;verticalAlign=middle;whiteSpace=wrap;rounded=0;" vertex="1" parent="1">
          <mxGeometry x="810" y="200" width="190" height="70" as="geometry" />
        </mxCell>
        <mxCell id="-sfLqBh8A9sCqYsM3AE3-23" value="&lt;b&gt;&#39;booking&#39; =&amp;gt; $id&lt;/b&gt;" style="text;html=1;strokeColor=none;fillColor=none;align=center;verticalAlign=middle;whiteSpace=wrap;rounded=0;" vertex="1" parent="1">
          <mxGeometry x="120" y="130" width="120" height="30" as="geometry" />
        </mxCell>
        <mxCell id="-sfLqBh8A9sCqYsM3AE3-24" value="&lt;b&gt;&#39;id&#39; =&amp;gt; $propert-&amp;gt;id&lt;/b&gt;" style="text;html=1;strokeColor=none;fillColor=none;align=center;verticalAlign=middle;whiteSpace=wrap;rounded=0;" vertex="1" parent="1">
          <mxGeometry x="550" y="300" width="150" height="30" as="geometry" />
        </mxCell>
        <mxCell id="-sfLqBh8A9sCqYsM3AE3-25" value="&lt;b&gt;Redirect Route&lt;/b&gt;" style="text;html=1;strokeColor=none;fillColor=none;align=center;verticalAlign=middle;whiteSpace=wrap;rounded=0;" vertex="1" parent="1">
          <mxGeometry x="-50" y="360" width="120" height="30" as="geometry" />
        </mxCell>
        <mxCell id="-sfLqBh8A9sCqYsM3AE3-26" value="&lt;b&gt;&#39;bookings&#39; =&amp;gt; $bookings,&lt;br&gt;&#39;now&#39;=&amp;gt;$now&lt;/b&gt;" style="text;html=1;strokeColor=none;fillColor=none;align=center;verticalAlign=middle;whiteSpace=wrap;rounded=0;" vertex="1" parent="1">
          <mxGeometry x="520" y="390" width="160" height="30" as="geometry" />
        </mxCell>
      </root>
    </mxGraphModel>
  </diagram>
</mxfile>
